<?xml version="1.0" encoding="UTF-8"?>
<svg width="752pt" height="752pt" version="1.1" viewBox="0 0 752 752" xmlns="http://www.w3.org/2000/svg">
 <path d="m366.53 210.25c91.535 0 165.75 74.215 165.75 165.75 0 91.535-74.219 165.75-165.75 165.75-91.539 0-165.75-74.219-165.75-165.75 0-91.539 74.215-165.75 165.75-165.75m0-18.945c-101.84 0-184.7 82.852-184.7 184.7s82.852 184.7 184.7 184.7 184.7-82.852 184.7-184.7c0.003906-101.84-82.848-184.7-184.69-184.7zm61.562 127.87c-10.465 0-18.941 10.594-18.941 23.68 0 13.086 8.4766 23.68 18.941 23.68s18.941-10.594 18.941-23.68c0.003906-13.086-8.4727-23.68-18.941-23.68zm-123.13 0c-10.465 0-18.941 10.594-18.941 23.68 0 13.086 8.4766 23.68 18.941 23.68s18.941-10.594 18.941-23.68c0-13.086-8.4766-23.68-18.941-23.68zm145.91 95.355c-2.2695-1.3125-5.1602-0.53906-6.4688 1.7227-1.1445 1.9805-2.4023 3.8438-3.707 5.6562-2.6055-8.7109-10.742-22.227-36.281-22.227-37.457 0-37.887 32.82-37.887 33.152v18.941c-38.562 0-64.031-11.621-77.875-35.523-1.3086-2.2695-4.207-3.0391-6.4688-1.7227-2.2656 1.3086-3.0352 4.207-1.7227 6.4688 15.453 26.711 44.414 40.25 86.066 40.25s70.609-13.539 86.07-40.25c1.3086-2.2617 0.53516-5.1602-1.7266-6.4688zm-74.875 18.305c0-0.96484 0.32031-23.68 28.414-23.68 23.824 0 27.68 16.094 28.297 21.863-13.191 12.383-31.945 19.133-56.711 20.473z"/>
</svg>
